REM DIRINDEX 1\2,1\3\5,1\3\6,1\4\7,1\4\8
REM DIRNAME cjc139,folder01,folder02,folder03,folder04,folder05,folder06,folder07
TITLE ""
FILE "JE_10new.mp3" MP3
  TRACK 01 AUDIO
    TITLE "0:"
    INDEX 01 00:00:00
  TRACK 02 AUDIO
    TITLE "7:cjc139_3220"
    INDEX 01 00:00:19
  TRACK 03 AUDIO
    TITLE "0:"
    INDEX 01 00:03:61
  TRACK 04 AUDIO
    TITLE "8:cjc139_3221"
    INDEX 01 00:06:45
  TRACK 05 AUDIO
    TITLE "0:"
    INDEX 01 00:09:36
  TRACK 06 AUDIO
    TITLE "7:cjc139_3222"
    INDEX 01 00:12:20
  TRACK 07 AUDIO
    TITLE "0:"
    INDEX 01 00:15:72
  TRACK 08 AUDIO
    TITLE "8:cjc139_3223"
    INDEX 01 00:18:56
  TRACK 09 AUDIO
    TITLE "0:"
    INDEX 01 00:21:27
  TRACK 10 AUDIO
    TITLE "7:cjc139_3224"
    INDEX 01 00:24:12
  TRACK 11 AUDIO
    TITLE "0:"
    INDEX 01 00:26:32
  TRACK 12 AUDIO
    TITLE "8:cjc139_3225"
    INDEX 01 00:29:17
  TRACK 13 AUDIO
    TITLE "0:"
    INDEX 01 00:32:00
  TRACK 14 AUDIO
    TITLE "7:cjc139_3226"
    INDEX 01 00:34:57
  TRACK 15 AUDIO
    TITLE "0:"
    INDEX 01 00:37:61
  TRACK 16 AUDIO
    TITLE "8:cjc139_3227"
    INDEX 01 00:40:48
  TRACK 17 AUDIO
    TITLE "0:"
    INDEX 01 00:42:63
  TRACK 18 AUDIO
    TITLE "7:cjc139_3228"
    INDEX 01 00:45:47
  TRACK 19 AUDIO
    TITLE "0:"
    INDEX 01 00:48:00
  TRACK 20 AUDIO
    TITLE "8:cjc139_3229"
    INDEX 01 00:50:60
  TRACK 21 AUDIO
    TITLE "0:"
    INDEX 01 00:53:31
  TRACK 22 AUDIO
    TITLE "7:cjc139_3230"
    INDEX 01 00:56:18
  TRACK 23 AUDIO
    TITLE "0:"
    INDEX 01 00:58:52
  TRACK 24 AUDIO
    TITLE "8:cjc139_3231"
    INDEX 01 01:01:34
  TRACK 25 AUDIO
    TITLE "0:"
    INDEX 01 01:04:23
  TRACK 26 AUDIO
    TITLE "7:cjc139_3232"
    INDEX 01 01:07:10
  TRACK 27 AUDIO
    TITLE "0:"
    INDEX 01 01:09:03
  TRACK 28 AUDIO
    TITLE "8:cjc139_3233"
    INDEX 01 01:11:62
  TRACK 29 AUDIO
    TITLE "0:"
    INDEX 01 01:14:16
  TRACK 30 AUDIO
    TITLE "7:cjc139_3234"
    INDEX 01 01:17:02
  TRACK 31 AUDIO
    TITLE "0:"
    INDEX 01 01:19:13
  TRACK 32 AUDIO
    TITLE "8:cjc139_3235"
    INDEX 01 01:21:74
  TRACK 33 AUDIO
    TITLE "0:"
    INDEX 01 01:24:32
  TRACK 34 AUDIO
    TITLE "7:cjc139_3236"
    INDEX 01 01:27:20
  TRACK 35 AUDIO
    TITLE "0:"
    INDEX 01 01:29:17
  TRACK 36 AUDIO
    TITLE "8:cjc139_3237"
    INDEX 01 01:32:00
  TRACK 37 AUDIO
    TITLE "0:"
    INDEX 01 01:34:34
  TRACK 38 AUDIO
    TITLE "7:cjc139_3238"
    INDEX 01 01:37:22
  TRACK 39 AUDIO
    TITLE "0:"
    INDEX 01 01:39:74
  TRACK 40 AUDIO
    TITLE "8:cjc139_3239"
    INDEX 01 01:42:57
  TRACK 41 AUDIO
    TITLE "0:"
    INDEX 01 01:45:04
  TRACK 42 AUDIO
    TITLE "7:cjc139_3240"
    INDEX 01 01:47:64
  TRACK 43 AUDIO
    TITLE "0:"
    INDEX 01 01:51:01
  TRACK 44 AUDIO
    TITLE "8:cjc139_3241"
    INDEX 01 01:53:63
  TRACK 45 AUDIO
    TITLE "0:"
    INDEX 01 01:56:51
  TRACK 46 AUDIO
    TITLE "7:cjc139_3242"
    INDEX 01 01:59:38
  TRACK 47 AUDIO
    TITLE "0:"
    INDEX 01 02:02:09
  TRACK 48 AUDIO
    TITLE "8:cjc139_3243"
    INDEX 01 02:04:70
  TRACK 49 AUDIO
    TITLE "0:"
    INDEX 01 02:07:14
  TRACK 50 AUDIO
    TITLE "7:cjc139_3244"
    INDEX 01 02:10:00
  TRACK 51 AUDIO
    TITLE "0:"
    INDEX 01 02:12:50
  TRACK 52 AUDIO
    TITLE "8:cjc139_3245"
    INDEX 01 02:15:35
  TRACK 53 AUDIO
    TITLE "0:"
    INDEX 01 02:18:02
  TRACK 54 AUDIO
    TITLE "7:cjc139_3246"
    INDEX 01 02:20:61
  TRACK 55 AUDIO
    TITLE "0:"
    INDEX 01 02:23:48
  TRACK 56 AUDIO
    TITLE "8:cjc139_3247"
    INDEX 01 02:26:35
  TRACK 57 AUDIO
    TITLE "0:"
    INDEX 01 02:29:13
  TRACK 58 AUDIO
    TITLE "7:cjc139_3248"
    INDEX 01 02:31:73
  TRACK 59 AUDIO
    TITLE "0:"
    INDEX 01 02:34:13
  TRACK 60 AUDIO
    TITLE "8:cjc139_3249"
    INDEX 01 02:36:74
  TRACK 61 AUDIO
    TITLE "0:"
    INDEX 01 02:39:47
  TRACK 62 AUDIO
    TITLE "7:cjc139_3250"
    INDEX 01 02:42:34
  TRACK 63 AUDIO
    TITLE "0:"
    INDEX 01 02:45:09
  TRACK 64 AUDIO
    TITLE "8:cjc139_3251"
    INDEX 01 02:47:64
  TRACK 65 AUDIO
    TITLE "0:"
    INDEX 01 02:50:47
  TRACK 66 AUDIO
    TITLE "7:cjc139_3252"
    INDEX 01 02:53:33
  TRACK 67 AUDIO
    TITLE "0:"
    INDEX 01 02:56:08
  TRACK 68 AUDIO
    TITLE "8:cjc139_3253"
    INDEX 01 02:58:70
  TRACK 69 AUDIO
    TITLE "0:"
    INDEX 01 03:01:37
  TRACK 70 AUDIO
    TITLE "7:cjc139_3254"
    INDEX 01 03:04:25
  TRACK 71 AUDIO
    TITLE "0:"
    INDEX 01 03:07:24
  TRACK 72 AUDIO
    TITLE "8:cjc139_3255"
    INDEX 01 03:10:10
  TRACK 73 AUDIO
    TITLE "0:"
    INDEX 01 03:12:66
  TRACK 74 AUDIO
    TITLE "7:cjc139_3256"
    INDEX 01 03:15:53
  TRACK 75 AUDIO
    TITLE "0:"
    INDEX 01 03:18:24
  TRACK 76 AUDIO
    TITLE "8:cjc139_3257"
    INDEX 01 03:21:10
  TRACK 77 AUDIO
    TITLE "0:"
    INDEX 01 03:23:31
  TRACK 78 AUDIO
    TITLE "7:cjc139_3258"
    INDEX 01 03:26:13
  TRACK 79 AUDIO
    TITLE "0:"
    INDEX 01 03:28:63
  TRACK 80 AUDIO
    TITLE "8:cjc139_3259"
    INDEX 01 03:31:50
  TRACK 81 AUDIO
    TITLE "0:"
    INDEX 01 03:34:54
  TRACK 82 AUDIO
    TITLE "7:cjc139_3260"
    INDEX 01 03:37:41
  TRACK 83 AUDIO
    TITLE "0:"
    INDEX 01 03:40:37
  TRACK 84 AUDIO
    TITLE "8:cjc139_3261"
    INDEX 01 03:43:22
  TRACK 85 AUDIO
    TITLE "0:"
    INDEX 01 03:46:45
  TRACK 86 AUDIO
    TITLE "7:cjc139_3262"
    INDEX 01 03:49:28
  TRACK 87 AUDIO
    TITLE "0:"
    INDEX 01 03:52:26
  TRACK 88 AUDIO
    TITLE "8:cjc139_3263"
    INDEX 01 03:55:09
  TRACK 89 AUDIO
    TITLE "0:"
    INDEX 01 03:58:07
  TRACK 90 AUDIO
    TITLE "7:cjc139_3264"
    INDEX 01 04:00:65
  TRACK 91 AUDIO
    TITLE "0:"
    INDEX 01 04:04:06
  TRACK 92 AUDIO
    TITLE "8:cjc139_3265"
    INDEX 01 04:06:66
  TRACK 93 AUDIO
    TITLE "0:"
    INDEX 01 04:10:17
  TRACK 94 AUDIO
    TITLE "7:cjc139_3266"
    INDEX 01 04:13:01
  TRACK 95 AUDIO
    TITLE "0:"
    INDEX 01 04:15:47
  TRACK 96 AUDIO
    TITLE "8:cjc139_3267"
    INDEX 01 04:18:32
  TRACK 97 AUDIO
    TITLE "0:"
    INDEX 01 04:22:45
  TRACK 98 AUDIO
    TITLE "7:cjc139_3268"
    INDEX 01 04:25:32
  TRACK 99 AUDIO
    TITLE "0:"
    INDEX 01 04:27:74
  TRACK 100 AUDIO
    TITLE "8:cjc139_3269"
    INDEX 01 04:30:60
  TRACK 101 AUDIO
    TITLE "0:"
    INDEX 01 04:34:60
  TRACK 102 AUDIO
    TITLE "7:cjc139_3270"
    INDEX 01 04:37:47
  TRACK 103 AUDIO
    TITLE "0:"
    INDEX 01 04:40:57
  TRACK 104 AUDIO
    TITLE "8:cjc139_3271"
    INDEX 01 04:43:43
  TRACK 105 AUDIO
    TITLE "0:"
    INDEX 01 04:47:59
  TRACK 106 AUDIO
    TITLE "7:cjc139_3272"
    INDEX 01 04:50:42
  TRACK 107 AUDIO
    TITLE "0:"
    INDEX 01 04:53:38
  TRACK 108 AUDIO
    TITLE "8:cjc139_3273"
    INDEX 01 04:56:23
  TRACK 109 AUDIO
    TITLE "0:"
    INDEX 01 04:59:50
  TRACK 110 AUDIO
    TITLE "7:cjc139_3274"
    INDEX 01 05:02:35
  TRACK 111 AUDIO
    TITLE "0:"
    INDEX 01 05:04:30
  TRACK 112 AUDIO
    TITLE "8:cjc139_3275"
    INDEX 01 05:07:16
  TRACK 113 AUDIO
    TITLE "0:"
    INDEX 01 05:09:23
  TRACK 114 AUDIO
    TITLE "7:cjc139_3276"
    INDEX 01 05:12:10
  TRACK 115 AUDIO
    TITLE "0:"
    INDEX 01 05:14:26
  TRACK 116 AUDIO
    TITLE "8:cjc139_3277"
    INDEX 01 05:17:09
  TRACK 117 AUDIO
    TITLE "0:"
    INDEX 01 05:20:11
  TRACK 118 AUDIO
    TITLE "7:cjc139_3278"
    INDEX 01 05:22:69
  TRACK 119 AUDIO
    TITLE "0:"
    INDEX 01 05:25:09
  TRACK 120 AUDIO
    TITLE "8:cjc139_3279"
    INDEX 01 05:27:68
  TRACK 121 AUDIO
    TITLE "0:"
    INDEX 01 05:30:61
  TRACK 122 AUDIO
    TITLE "7:cjc139_3280"
    INDEX 01 05:33:45
  TRACK 123 AUDIO
    TITLE "0:"
    INDEX 01 05:35:72
  TRACK 124 AUDIO
    TITLE "8:cjc139_3281"
    INDEX 01 05:38:58
  TRACK 125 AUDIO
    TITLE "0:"
    INDEX 01 05:42:30
  TRACK 126 AUDIO
    TITLE "7:cjc139_3282"
    INDEX 01 05:45:15
  TRACK 127 AUDIO
    TITLE "0:"
    INDEX 01 05:48:41
  TRACK 128 AUDIO
    TITLE "8:cjc139_3283"
    INDEX 01 05:51:26
  TRACK 129 AUDIO
    TITLE "0:"
    INDEX 01 05:54:04
  TRACK 130 AUDIO
    TITLE "7:cjc139_3284"
    INDEX 01 05:56:66
  TRACK 131 AUDIO
    TITLE "0:"
    INDEX 01 05:59:02
  TRACK 132 AUDIO
    TITLE "8:cjc139_3285"
    INDEX 01 06:01:63
  TRACK 133 AUDIO
    TITLE "0:"
    INDEX 01 06:04:30
  TRACK 134 AUDIO
    TITLE "7:cjc139_3286"
    INDEX 01 06:07:17
  TRACK 135 AUDIO
    TITLE "0:"
    INDEX 01 06:10:41
  TRACK 136 AUDIO
    TITLE "8:cjc139_3287"
    INDEX 01 06:13:27
  TRACK 137 AUDIO
    TITLE "0:"
    INDEX 01 06:17:03
  TRACK 138 AUDIO
    TITLE "7:cjc139_3288"
    INDEX 01 06:19:63
  TRACK 139 AUDIO
    TITLE "0:"
    INDEX 01 06:23:27
  TRACK 140 AUDIO
    TITLE "8:cjc139_3289"
    INDEX 01 06:26:12
  TRACK 141 AUDIO
    TITLE "0:"
    INDEX 01 06:29:38
  TRACK 142 AUDIO
    TITLE "7:cjc139_3290"
    INDEX 01 06:32:23
  TRACK 143 AUDIO
    TITLE "0:"
    INDEX 01 06:35:13
  TRACK 144 AUDIO
    TITLE "8:cjc139_3291"
    INDEX 01 06:37:73
  TRACK 145 AUDIO
    TITLE "0:"
    INDEX 01 06:40:28
  TRACK 146 AUDIO
    TITLE "7:cjc139_3292"
    INDEX 01 06:43:16
  TRACK 147 AUDIO
    TITLE "0:"
    INDEX 01 06:46:62
  TRACK 148 AUDIO
    TITLE "8:cjc139_3293"
    INDEX 01 06:49:46
  TRACK 149 AUDIO
    TITLE "0:"
    INDEX 01 06:52:51
  TRACK 150 AUDIO
    TITLE "7:cjc139_3294"
    INDEX 01 06:55:35
  TRACK 151 AUDIO
    TITLE "0:"
    INDEX 01 06:59:70
  TRACK 152 AUDIO
    TITLE "8:cjc139_3295"
    INDEX 01 07:02:55
  TRACK 153 AUDIO
    TITLE "0:"
    INDEX 01 07:05:53
  TRACK 154 AUDIO
    TITLE "7:cjc139_3296"
    INDEX 01 07:08:36
  TRACK 155 AUDIO
    TITLE "0:"
    INDEX 01 07:12:49
  TRACK 156 AUDIO
    TITLE "8:cjc139_3297"
    INDEX 01 07:15:32
  TRACK 157 AUDIO
    TITLE "0:"
    INDEX 01 07:18:46
  TRACK 158 AUDIO
    TITLE "7:cjc139_3298"
    INDEX 01 07:21:33
  TRACK 159 AUDIO
    TITLE "0:"
    INDEX 01 07:24:37
  TRACK 160 AUDIO
    TITLE "8:cjc139_3299"
    INDEX 01 07:27:22
  TRACK 161 AUDIO
    TITLE "0:"
    INDEX 01 07:30:18
  TRACK 162 AUDIO
    TITLE "7:cjc139_3300"
    INDEX 01 07:33:03
  TRACK 163 AUDIO
    TITLE "0:"
    INDEX 01 07:38:08
  TRACK 164 AUDIO
    TITLE "8:cjc139_3301"
    INDEX 01 07:40:67
  TRACK 165 AUDIO
    TITLE "0:"
    INDEX 01 07:44:34
  TRACK 166 AUDIO
    TITLE "8:cjc139_3302"
    INDEX 01 07:45:59
  TRACK 167 AUDIO
    TITLE "0:"
    INDEX 01 07:49:31
  TRACK 168 AUDIO
    TITLE "7:cjc139_3303"
    INDEX 01 07:52:14
  TRACK 169 AUDIO
    TITLE "0:"
    INDEX 01 07:55:02
  TRACK 170 AUDIO
    TITLE "8:cjc139_3304"
    INDEX 01 07:57:62
  TRACK 171 AUDIO
    TITLE "0:"
    INDEX 01 08:01:13
  TRACK 172 AUDIO
    TITLE "7:cjc139_3305"
    INDEX 01 08:03:74
  TRACK 173 AUDIO
    TITLE "0:"
    INDEX 01 08:06:28
  TRACK 174 AUDIO
    TITLE "8:cjc139_3306"
    INDEX 01 08:09:12
  TRACK 175 AUDIO
    TITLE "0:"
    INDEX 01 08:11:70
  TRACK 176 AUDIO
    TITLE "7:cjc139_3307"
    INDEX 01 08:14:58
  TRACK 177 AUDIO
    TITLE "0:"
    INDEX 01 08:17:41
  TRACK 178 AUDIO
    TITLE "8:cjc139_3308"
    INDEX 01 08:20:28
  TRACK 179 AUDIO
    TITLE "0:"
    INDEX 01 08:23:59
  TRACK 180 AUDIO
    TITLE "7:cjc139_3309"
    INDEX 01 08:26:44
  TRACK 181 AUDIO
    TITLE "0:"
    INDEX 01 08:29:01
  TRACK 182 AUDIO
    TITLE "8:cjc139_3310"
    INDEX 01 08:31:59
  TRACK 183 AUDIO
    TITLE "0:"
    INDEX 01 08:34:14
  TRACK 184 AUDIO
    TITLE "7:cjc139_3311"
    INDEX 01 08:37:01
  TRACK 185 AUDIO
    TITLE "0:"
    INDEX 01 08:39:54
  TRACK 186 AUDIO
    TITLE "8:cjc139_3312"
    INDEX 01 08:42:39
  TRACK 187 AUDIO
    TITLE "0:"
    INDEX 01 08:45:49
  TRACK 188 AUDIO
    TITLE "7:cjc139_3313"
    INDEX 01 08:48:36
  TRACK 189 AUDIO
    TITLE "0:"
    INDEX 01 08:52:24
  TRACK 190 AUDIO
    TITLE "8:cjc139_3314"
    INDEX 01 08:55:10
  TRACK 191 AUDIO
    TITLE "0:"
    INDEX 01 08:58:50
  TRACK 192 AUDIO
    TITLE "7:cjc139_3315"
    INDEX 01 09:01:36
  TRACK 193 AUDIO
    TITLE "0:"
    INDEX 01 09:04:58
  TRACK 194 AUDIO
    TITLE "8:cjc139_3316"
    INDEX 01 09:07:45
  TRACK 195 AUDIO
    TITLE "0:"
    INDEX 01 09:10:49
  TRACK 196 AUDIO
    TITLE "7:cjc139_3317"
    INDEX 01 09:13:34
  TRACK 197 AUDIO
    TITLE "0:"
    INDEX 01 09:16:30
  TRACK 198 AUDIO
    TITLE "8:cjc139_3318"
    INDEX 01 09:19:15
  TRACK 199 AUDIO
    TITLE "0:"
    INDEX 01 09:23:32
  TRACK 200 AUDIO
    TITLE "7:cjc139_3319"
    INDEX 01 09:26:17
  TRACK 201 AUDIO
    TITLE "0:"
    INDEX 01 09:29:74
  TRACK 202 AUDIO
    TITLE "8:cjc139_3320"
    INDEX 01 09:32:59
  TRACK 203 AUDIO
    TITLE "0:"
    INDEX 01 09:36:23
  TRACK 204 AUDIO
    TITLE "7:cjc139_3321"
    INDEX 01 09:39:10
  TRACK 205 AUDIO
    TITLE "0:"
    INDEX 01 09:43:19
  TRACK 206 AUDIO
    TITLE "8:cjc139_3322"
    INDEX 01 09:46:02
  TRACK 207 AUDIO
    TITLE "0:"
    INDEX 01 09:49:39
  TRACK 208 AUDIO
    TITLE "7:cjc139_3323"
    INDEX 01 09:52:24
  TRACK 209 AUDIO
    TITLE "0:"
    INDEX 01 09:55:40
  TRACK 210 AUDIO
    TITLE "8:cjc139_3324"
    INDEX 01 09:58:25
  TRACK 211 AUDIO
    TITLE "0:"
    INDEX 01 10:01:27
  TRACK 212 AUDIO
    TITLE "7:cjc139_3325"
    INDEX 01 10:04:13
  TRACK 213 AUDIO
    TITLE "0:"
    INDEX 01 10:07:69
  TRACK 214 AUDIO
    TITLE "8:cjc139_3326"
    INDEX 01 10:10:53
  TRACK 215 AUDIO
    TITLE "0:"
    INDEX 01 10:14:28
  TRACK 216 AUDIO
    TITLE "7:cjc139_3327"
    INDEX 01 10:17:14
  TRACK 217 AUDIO
    TITLE "0:"
    INDEX 01 10:19:72
  TRACK 218 AUDIO
    TITLE "8:cjc139_3328"
    INDEX 01 10:22:58
  TRACK 219 AUDIO
    TITLE "0:"
    INDEX 01 10:26:05
  TRACK 220 AUDIO
    TITLE "7:cjc139_3329"
    INDEX 01 10:28:67
  TRACK 221 AUDIO
    TITLE "0:"
    INDEX 01 10:32:06
  TRACK 222 AUDIO
    TITLE "8:cjc139_3330"
    INDEX 01 10:34:67
  TRACK 223 AUDIO
    TITLE "0:"
    INDEX 01 10:37:40
  TRACK 224 AUDIO
    TITLE "7:cjc139_3331"
    INDEX 01 10:40:25
  TRACK 225 AUDIO
    TITLE "0:"
    INDEX 01 10:42:43
  TRACK 226 AUDIO
    TITLE "8:cjc139_3332"
    INDEX 01 10:45:26
  TRACK 227 AUDIO
    TITLE "0:"
    INDEX 01 10:47:37
  TRACK 228 AUDIO
    TITLE "7:cjc139_3333"
    INDEX 01 10:50:19
  TRACK 229 AUDIO
    TITLE "0:"
    INDEX 01 10:53:18
  TRACK 230 AUDIO
    TITLE "8:cjc139_3334"
    INDEX 01 10:56:04
  TRACK 231 AUDIO
    TITLE "0:"
    INDEX 01 10:59:03
  TRACK 232 AUDIO
    TITLE "7:cjc139_3335"
    INDEX 01 11:01:62
  TRACK 233 AUDIO
    TITLE "0:"
    INDEX 01 11:04:61
  TRACK 234 AUDIO
    TITLE "8:cjc139_3336"
    INDEX 01 11:07:45
  TRACK 235 AUDIO
    TITLE "0:"
    INDEX 01 11:10:61
  TRACK 236 AUDIO
    TITLE "7:cjc139_3337"
    INDEX 01 11:13:48
  TRACK 237 AUDIO
    TITLE "0:"
    INDEX 01 11:16:50
  TRACK 238 AUDIO
    TITLE "8:cjc139_3338"
    INDEX 01 11:19:35
  TRACK 239 AUDIO
    TITLE "0:"
    INDEX 01 11:22:70
  TRACK 240 AUDIO
    TITLE "7:cjc139_3339"
    INDEX 01 11:25:53
  TRACK 241 AUDIO
    TITLE "0:"
    INDEX 01 11:29:41
  TRACK 242 AUDIO
    TITLE "8:cjc139_3340"
    INDEX 01 11:32:26
  TRACK 243 AUDIO
    TITLE "0:"
    INDEX 01 11:35:38
  TRACK 244 AUDIO
    TITLE "7:cjc139_3341"
    INDEX 01 11:38:26
  TRACK 245 AUDIO
    TITLE "0:"
    INDEX 01 11:43:20
  TRACK 246 AUDIO
    TITLE "8:cjc139_3342"
    INDEX 01 11:46:08
  TRACK 247 AUDIO
    TITLE "0:"
    INDEX 01 11:50:02
